<?xml version="1.0" standalone="no"?>
<!DOCTYPE svg PUBLIC "-//W3C//DTD SVG 20010904//EN"
 "http://www.w3.org/TR/2001/REC-SVG-20010904/DTD/svg10.dtd">
<svg version="1.0" xmlns="http://www.w3.org/2000/svg"
 width="128.000000pt" height="128.000000pt" viewBox="0 0 128.000000 128.000000"
 preserveAspectRatio="xMidYMid meet">
<metadata>
Created by potrace 1.11, written by Peter Selinger 2001-2013
</metadata>
<g transform="translate(0.000000,128.000000) scale(0.100000,-0.100000)"
fill="#000000" stroke="none">
<path d="M200 840 l-200 -200 200 -200 c110 -110 203 -200 208 -200 4 0 36 29
71 65 l65 65 -35 36 c-19 19 -79 80 -133 135 l-100 100 134 134 135 135 -65
65 c-35 36 -68 65 -72 65 -4 0 -98 -90 -208 -200z"/>
<path d="M800 975 l-64 -65 29 -31 c17 -17 77 -78 134 -135 l105 -104 -130
-130 c-71 -72 -131 -133 -133 -136 -6 -6 120 -134 131 -134 4 0 98 90 208 200
l200 200 -200 200 c-110 110 -203 200 -208 200 -4 0 -36 -29 -72 -65z"/>
</g>
</svg>
